# MagicaVoxel @ Ephtracy

# group
o 

# material
mtllib Building4.mtl
usemtl palette

# normals
vn -1 0 0
vn 1 0 0
vn 0 0 1
vn 0 0 -1
vn 0 -1 0
vn 0 1 0

# texcoords
vt 0.0332031 0.5
vt 0.306641 0.5
vt 0.447266 0.5
vt 0.615234 0.5
vt 0.970703 0.5
vt 0.990234 0.5

# verts
v -1 0 0.6
v -1 0 -0.8
v -1 1.9 0.6
v -1 1.9 -0.8
v 0.5 0 0.6
v 0.5 0 0
v 0.5 0.5 0.6
v 0.5 0.5 0
v -0.8 0 0.6
v -0.8 0 0
v -0.8 0.5 0.6
v -0.8 0.5 0
v 0.7 0 0.6
v 0.7 0 0.2
v 0.7 0 -0.4
v 0.7 0 -0.8
v 0.7 0.4 0.2
v 0.7 0.4 -0.4
v 0.7 0.5 0.5
v 0.7 0.5 0
v 0.7 0.5 -0.2
v 0.7 0.5 -0.7
v 0.7 0.6 0.5
v 0.7 0.6 0
v 0.7 0.6 -0.2
v 0.7 0.6 -0.7
v 0.7 0.9 0.5
v 0.7 0.9 0
v 0.7 0.9 -0.2
v 0.7 0.9 -0.7
v 0.7 1 0.5
v 0.7 1 0
v 0.7 1 -0.2
v 0.7 1 -0.7
v 0.7 1.3 0.5
v 0.7 1.3 0
v 0.7 1.3 -0.2
v 0.7 1.3 -0.7
v 0.7 1.4 0.5
v 0.7 1.4 0
v 0.7 1.4 -0.2
v 0.7 1.4 -0.7
v 0.7 1.7 0.5
v 0.7 1.7 0
v 0.7 1.7 -0.2
v 0.7 1.7 -0.7
v 0.7 1.9 0.6
v 0.7 1.9 -0.8
v 0.8 0.5 0.5
v 0.8 0.5 0
v 0.8 0.5 -0.2
v 0.8 0.5 -0.7
v 0.8 0.6 0.5
v 0.8 0.6 0
v 0.8 0.6 -0.2
v 0.8 0.6 -0.7
v 0.8 0.9 0.5
v 0.8 0.9 0
v 0.8 0.9 -0.2
v 0.8 0.9 -0.7
v 0.8 1 0.5
v 0.8 1 0
v 0.8 1 -0.2
v 0.8 1 -0.7
v 0.8 1.3 0.5
v 0.8 1.3 0
v 0.8 1.3 -0.2
v 0.8 1.3 -0.7
v 0.8 1.4 0.5
v 0.8 1.4 0
v 0.8 1.4 -0.2
v 0.8 1.4 -0.7
v -1 0 0.6
v -1 1.9 0.6
v -0.9 0.6 0.6
v -0.9 0.9 0.6
v -0.9 1 0.6
v -0.9 1.3 0.6
v -0.9 1.4 0.6
v -0.9 1.7 0.6
v -0.8 0 0.6
v -0.8 0.5 0.6
v -0.3 0.6 0.6
v -0.3 0.9 0.6
v -0.3 1 0.6
v -0.3 1.3 0.6
v -0.3 1.4 0.6
v -0.3 1.7 0.6
v -0.1 0.6 0.6
v -0.1 0.9 0.6
v -0.1 1 0.6
v -0.1 1.3 0.6
v -0.1 1.4 0.6
v -0.1 1.7 0.6
v 0.5 0 0.6
v 0.5 0.5 0.6
v 0.5 0.6 0.6
v 0.5 0.9 0.6
v 0.5 1 0.6
v 0.5 1.3 0.6
v 0.5 1.4 0.6
v 0.5 1.7 0.6
v 0.7 0 0.6
v 0.7 1.9 0.6
v 0.7 0.5 0.5
v 0.7 0.6 0.5
v 0.7 0.9 0.5
v 0.7 1 0.5
v 0.7 1.3 0.5
v 0.7 1.4 0.5
v 0.8 0.5 0.5
v 0.8 0.6 0.5
v 0.8 0.9 0.5
v 0.8 1 0.5
v 0.8 1.3 0.5
v 0.8 1.4 0.5
v -0.8 0 0
v -0.8 0.5 0
v -0.5 0 0
v -0.5 0.4 0
v -0.2 0 0
v -0.2 0.4 0
v -0.1 0 0
v -0.1 0.4 0
v 0.2 0 0
v 0.2 0.4 0
v 0.5 0 0
v 0.5 0.5 0
v 0.7 0.5 -0.2
v 0.7 0.6 -0.2
v 0.7 0.9 -0.2
v 0.7 1 -0.2
v 0.7 1.3 -0.2
v 0.7 1.4 -0.2
v 0.8 0.5 -0.2
v 0.8 0.6 -0.2
v 0.8 0.9 -0.2
v 0.8 1 -0.2
v 0.8 1.3 -0.2
v 0.8 1.4 -0.2
v 0.7 0.5 0
v 0.7 0.6 0
v 0.7 0.9 0
v 0.7 1 0
v 0.7 1.3 0
v 0.7 1.4 0
v 0.8 0.5 0
v 0.8 0.6 0
v 0.8 0.9 0
v 0.8 1 0
v 0.8 1.3 0
v 0.8 1.4 0
v 0.7 0.5 -0.7
v 0.7 0.6 -0.7
v 0.7 0.9 -0.7
v 0.7 1 -0.7
v 0.7 1.3 -0.7
v 0.7 1.4 -0.7
v 0.8 0.5 -0.7
v 0.8 0.6 -0.7
v 0.8 0.9 -0.7
v 0.8 1 -0.7
v 0.8 1.3 -0.7
v 0.8 1.4 -0.7
v -1 0 -0.8
v -1 1.9 -0.8
v 0.7 0 -0.8
v 0.7 1.9 -0.8
v -1 0 0.6
v -0.8 0 0.6
v 0.5 0 0.6
v 0.7 0 0.6
v 0.6 0 0.2
v 0.7 0 0.2
v -0.8 0 0
v -0.5 0 0
v -0.2 0 0
v -0.1 0 0
v 0.2 0 0
v 0.5 0 0
v -0.5 0 -0.1
v -0.2 0 -0.1
v -0.1 0 -0.1
v 0.2 0 -0.1
v 0.6 0 -0.4
v 0.7 0 -0.4
v -1 0 -0.8
v 0.7 0 -0.8
v -0.8 0.5 0.6
v 0.5 0.5 0.6
v 0.7 0.5 0.5
v 0.8 0.5 0.5
v -0.8 0.5 0
v 0.5 0.5 0
v 0.7 0.5 0
v 0.8 0.5 0
v 0.7 0.5 -0.2
v 0.8 0.5 -0.2
v 0.7 0.5 -0.7
v 0.8 0.5 -0.7
v 0.7 0.9 0.5
v 0.8 0.9 0.5
v 0.7 0.9 0
v 0.8 0.9 0
v 0.7 0.9 -0.2
v 0.8 0.9 -0.2
v 0.7 0.9 -0.7
v 0.8 0.9 -0.7
v 0.7 1.3 0.5
v 0.8 1.3 0.5
v 0.7 1.3 0
v 0.8 1.3 0
v 0.7 1.3 -0.2
v 0.8 1.3 -0.2
v 0.7 1.3 -0.7
v 0.8 1.3 -0.7
v 0.7 0.6 0.5
v 0.8 0.6 0.5
v 0.7 0.6 0
v 0.8 0.6 0
v 0.7 0.6 -0.2
v 0.8 0.6 -0.2
v 0.7 0.6 -0.7
v 0.8 0.6 -0.7
v 0.7 1 0.5
v 0.8 1 0.5
v 0.7 1 0
v 0.8 1 0
v 0.7 1 -0.2
v 0.8 1 -0.2
v 0.7 1 -0.7
v 0.8 1 -0.7
v 0.7 1.4 0.5
v 0.8 1.4 0.5
v 0.7 1.4 0
v 0.8 1.4 0
v 0.7 1.4 -0.2
v 0.8 1.4 -0.2
v 0.7 1.4 -0.7
v 0.8 1.4 -0.7
v -1 1.9 0.6
v 0.7 1.9 0.6
v -1 1.9 -0.8
v 0.7 1.9 -0.8

# faces
f 3/1/1 2/1/1 1/1/1
f 4/1/1 2/1/1 3/1/1
f 7/1/1 6/1/1 5/1/1
f 8/1/1 6/1/1 7/1/1
f 9/1/2 10/1/2 11/1/2
f 11/1/2 10/1/2 12/1/2
f 13/1/2 14/1/2 17/1/2
f 14/6/2 15/6/2 17/6/2
f 15/1/2 16/1/2 18/1/2
f 17/6/2 15/6/2 18/6/2
f 13/1/2 17/1/2 19/1/2
f 17/1/2 18/1/2 19/1/2
f 19/1/2 18/1/2 20/1/2
f 20/1/2 18/1/2 21/1/2
f 18/1/2 16/1/2 22/1/2
f 21/1/2 18/1/2 22/1/2
f 13/1/2 19/1/2 23/1/2
f 20/1/2 21/1/2 24/1/2
f 24/1/2 21/1/2 25/1/2
f 22/1/2 16/1/2 26/1/2
f 13/1/2 23/1/2 27/1/2
f 23/3/2 24/3/2 27/3/2
f 24/1/2 25/1/2 28/1/2
f 27/3/2 24/3/2 28/3/2
f 25/3/2 26/3/2 29/3/2
f 28/1/2 25/1/2 29/1/2
f 26/1/2 16/1/2 30/1/2
f 29/3/2 26/3/2 30/3/2
f 13/1/2 27/1/2 31/1/2
f 28/1/2 29/1/2 32/1/2
f 32/1/2 29/1/2 33/1/2
f 30/1/2 16/1/2 34/1/2
f 13/1/2 31/1/2 35/1/2
f 31/3/2 32/3/2 35/3/2
f 32/1/2 33/1/2 36/1/2
f 35/3/2 32/3/2 36/3/2
f 33/3/2 34/3/2 37/3/2
f 36/1/2 33/1/2 37/1/2
f 34/1/2 16/1/2 38/1/2
f 37/3/2 34/3/2 38/3/2
f 13/1/2 35/1/2 39/1/2
f 36/1/2 37/1/2 40/1/2
f 40/1/2 37/1/2 41/1/2
f 38/1/2 16/1/2 42/1/2
f 13/1/2 39/1/2 43/1/2
f 39/3/2 40/3/2 43/3/2
f 40/1/2 41/1/2 44/1/2
f 43/3/2 40/3/2 44/3/2
f 41/3/2 42/3/2 45/3/2
f 44/1/2 41/1/2 45/1/2
f 42/1/2 16/1/2 46/1/2
f 45/3/2 42/3/2 46/3/2
f 13/1/2 43/1/2 47/1/2
f 43/1/2 44/1/2 47/1/2
f 45/1/2 46/1/2 47/1/2
f 44/1/2 45/1/2 47/1/2
f 46/1/2 16/1/2 48/1/2
f 47/1/2 46/1/2 48/1/2
f 49/5/2 50/5/2 53/5/2
f 53/5/2 50/5/2 54/5/2
f 51/5/2 52/5/2 55/5/2
f 55/5/2 52/5/2 56/5/2
f 57/5/2 58/5/2 61/5/2
f 61/5/2 58/5/2 62/5/2
f 59/5/2 60/5/2 63/5/2
f 63/5/2 60/5/2 64/5/2
f 65/5/2 66/5/2 69/5/2
f 69/5/2 66/5/2 70/5/2
f 67/5/2 68/5/2 71/5/2
f 71/5/2 68/5/2 72/5/2
f 75/1/3 74/1/3 73/1/3
f 76/1/3 74/1/3 75/1/3
f 77/1/3 74/1/3 76/1/3
f 78/1/3 74/1/3 77/1/3
f 79/1/3 74/1/3 78/1/3
f 80/1/3 74/1/3 79/1/3
f 81/1/3 75/1/3 73/1/3
f 82/1/3 75/1/3 81/1/3
f 83/3/3 76/3/3 75/3/3
f 83/1/3 75/1/3 82/1/3
f 84/1/3 77/1/3 76/1/3
f 84/3/3 76/3/3 83/3/3
f 85/3/3 78/3/3 77/3/3
f 85/1/3 77/1/3 84/1/3
f 86/1/3 79/1/3 78/1/3
f 86/3/3 78/3/3 85/3/3
f 87/3/3 80/3/3 79/3/3
f 87/1/3 79/1/3 86/1/3
f 88/1/3 74/1/3 80/1/3
f 88/3/3 80/3/3 87/3/3
f 89/1/3 87/1/3 86/1/3
f 89/1/3 83/1/3 82/1/3
f 89/1/3 88/1/3 87/1/3
f 89/1/3 86/1/3 85/1/3
f 89/1/3 85/1/3 84/1/3
f 89/1/3 84/1/3 83/1/3
f 90/1/3 88/1/3 89/1/3
f 91/1/3 88/1/3 90/1/3
f 92/1/3 88/1/3 91/1/3
f 93/1/3 88/1/3 92/1/3
f 94/1/3 74/1/3 88/1/3
f 94/1/3 88/1/3 93/1/3
f 96/1/3 89/1/3 82/1/3
f 97/3/3 90/3/3 89/3/3
f 97/1/3 89/1/3 96/1/3
f 98/1/3 91/1/3 90/1/3
f 98/3/3 90/3/3 97/3/3
f 99/3/3 92/3/3 91/3/3
f 99/1/3 91/1/3 98/1/3
f 100/1/3 93/1/3 92/1/3
f 100/3/3 92/3/3 99/3/3
f 101/3/3 94/3/3 93/3/3
f 101/1/3 93/1/3 100/1/3
f 102/1/3 74/1/3 94/1/3
f 102/3/3 94/3/3 101/3/3
f 103/1/3 99/1/3 98/1/3
f 103/1/3 101/1/3 100/1/3
f 103/1/3 102/1/3 101/1/3
f 103/1/3 96/1/3 95/1/3
f 103/1/3 100/1/3 99/1/3
f 103/1/3 98/1/3 97/1/3
f 103/1/3 97/1/3 96/1/3
f 104/1/3 74/1/3 102/1/3
f 104/1/3 102/1/3 103/1/3
f 111/5/3 106/5/3 105/5/3
f 112/5/3 106/5/3 111/5/3
f 113/5/3 108/5/3 107/5/3
f 114/5/3 108/5/3 113/5/3
f 115/5/3 110/5/3 109/5/3
f 116/5/3 110/5/3 115/5/3
f 119/1/3 118/1/3 117/1/3
f 120/1/3 118/1/3 119/1/3
f 121/2/3 120/2/3 119/2/3
f 122/1/3 118/1/3 120/1/3
f 122/2/3 120/2/3 121/2/3
f 123/4/3 122/4/3 121/4/3
f 124/1/3 118/1/3 122/1/3
f 124/4/3 122/4/3 123/4/3
f 125/2/3 124/2/3 123/2/3
f 126/1/3 118/1/3 124/1/3
f 126/2/3 124/2/3 125/2/3
f 127/1/3 126/1/3 125/1/3
f 128/1/3 118/1/3 126/1/3
f 128/1/3 126/1/3 127/1/3
f 135/5/3 130/5/3 129/5/3
f 136/5/3 130/5/3 135/5/3
f 137/5/3 132/5/3 131/5/3
f 138/5/3 132/5/3 137/5/3
f 139/5/3 134/5/3 133/5/3
f 140/5/3 134/5/3 139/5/3
f 141/5/4 142/5/4 147/5/4
f 147/5/4 142/5/4 148/5/4
f 143/5/4 144/5/4 149/5/4
f 149/5/4 144/5/4 150/5/4
f 145/5/4 146/5/4 151/5/4
f 151/5/4 146/5/4 152/5/4
f 153/5/4 154/5/4 159/5/4
f 159/5/4 154/5/4 160/5/4
f 155/5/4 156/5/4 161/5/4
f 161/5/4 156/5/4 162/5/4
f 157/5/4 158/5/4 163/5/4
f 163/5/4 158/5/4 164/5/4
f 165/1/4 166/1/4 167/1/4
f 167/1/4 166/1/4 168/1/4
f 173/1/5 172/1/5 171/1/5
f 174/1/5 172/1/5 173/1/5
f 175/1/5 170/1/5 169/1/5
f 180/1/5 173/1/5 171/1/5
f 181/1/5 176/1/5 175/1/5
f 181/2/5 177/2/5 176/2/5
f 182/4/5 178/4/5 177/4/5
f 182/2/5 177/2/5 181/2/5
f 183/2/5 179/2/5 178/2/5
f 183/4/5 178/4/5 182/4/5
f 184/1/5 180/1/5 179/1/5
f 184/2/5 179/2/5 183/2/5
f 185/1/5 182/1/5 181/1/5
f 185/1/5 180/1/5 184/1/5
f 185/1/5 184/1/5 183/1/5
f 185/6/5 174/6/5 173/6/5
f 185/1/5 183/1/5 182/1/5
f 185/1/5 173/1/5 180/1/5
f 186/6/5 174/6/5 185/6/5
f 187/1/5 181/1/5 175/1/5
f 187/1/5 175/1/5 169/1/5
f 187/1/5 186/1/5 185/1/5
f 187/1/5 185/1/5 181/1/5
f 188/1/5 186/1/5 187/1/5
f 193/1/5 190/1/5 189/1/5
f 194/1/5 190/1/5 193/1/5
f 195/5/5 192/5/5 191/5/5
f 196/5/5 192/5/5 195/5/5
f 199/5/5 198/5/5 197/5/5
f 200/5/5 198/5/5 199/5/5
f 203/5/5 202/5/5 201/5/5
f 204/5/5 202/5/5 203/5/5
f 207/5/5 206/5/5 205/5/5
f 208/5/5 206/5/5 207/5/5
f 211/5/5 210/5/5 209/5/5
f 212/5/5 210/5/5 211/5/5
f 215/5/5 214/5/5 213/5/5
f 216/5/5 214/5/5 215/5/5
f 217/5/6 218/5/6 219/5/6
f 219/5/6 218/5/6 220/5/6
f 221/5/6 222/5/6 223/5/6
f 223/5/6 222/5/6 224/5/6
f 225/5/6 226/5/6 227/5/6
f 227/5/6 226/5/6 228/5/6
f 229/5/6 230/5/6 231/5/6
f 231/5/6 230/5/6 232/5/6
f 233/5/6 234/5/6 235/5/6
f 235/5/6 234/5/6 236/5/6
f 237/5/6 238/5/6 239/5/6
f 239/5/6 238/5/6 240/5/6
f 241/1/6 242/1/6 243/1/6
f 243/1/6 242/1/6 244/1/6
