# MagicaVoxel @ Ephtracy

# group
o 

# material
mtllib Building1.mtl
usemtl palette

# normals
vn -1 0 0
vn 1 0 0
vn 0 0 1
vn 0 0 -1
vn 0 -1 0
vn 0 1 0

# texcoords
vt 0.279297 0.5
vt 0.642578 0.5
vt 0.830078 0.5
vt 0.962891 0.5
vt 0.966797 0.5
vt 0.982422 0.5
vt 0.990234 0.5

# verts
v -1 0 0.5
v -1 0 -1.1
v -1 0.5 0.5
v -1 0.5 0.4
v -1 0.6 0.5
v -1 0.6 0.4
v -1 0.9 -0.4
v -1 0.9 -1.1
v -1 1 0.5
v -1 1 0.4
v -1 1 -0.8
v -1 1 -1.1
v -1 1.1 0.5
v -1 1.1 0.4
v -1 1.2 -0.6
v -1 1.2 -0.8
v -1 1.3 -0.5
v -1 1.3 -0.6
v -1 1.5 0.5
v -1 1.5 0.4
v -1 1.5 -0.3
v -1 1.5 -0.4
v -1 1.5 -0.5
v -1 1.6 0.4
v -1 1.6 -0.3
v -1 1.6 -0.4
v -0.9 0.5 0.5
v -0.9 0.5 0.4
v -0.9 0.6 0.5
v -0.9 0.6 0.4
v -0.9 1 0.5
v -0.9 1 0.4
v -0.9 1.1 0.5
v -0.9 1.1 0.4
v -0.9 1.5 0.5
v -0.9 1.5 0.4
v -0.9 1.6 0.5
v -0.9 1.6 0.4
v -0.8 0.7 0.5
v -0.8 0.7 0.4
v -0.8 0.8 0.5
v -0.8 0.8 0.4
v -0.8 1 -0.8
v -0.8 1 -0.9
v -0.8 1.1 -0.8
v -0.8 1.1 -0.9
v -0.6 0 0.9
v -0.6 0 0.7
v -0.6 0.1 0.9
v -0.6 0.1 0.7
v -0.1 1.3 0.5
v -0.1 1.3 0.4
v -0.1 1.4 0.5
v -0.1 1.4 0.4
v 0.1 0 1
v 0.1 0 0.9
v 0.1 0.1 1
v 0.1 0.1 0.9
v 0.5 0 0.7
v 0.5 0 0.6
v 0.5 0.1 0.7
v 0.5 0.1 0.6
v -0.9 0.7 0.5
v -0.9 0.7 0.4
v -0.9 0.8 0.5
v -0.9 0.8 0.4
v -0.8 1.1 -0.7
v -0.8 1.1 -0.8
v -0.8 1.2 -0.7
v -0.8 1.2 -0.8
v -0.2 1.3 0.5
v -0.2 1.3 0.4
v -0.2 1.4 0.5
v -0.2 1.4 0.4
v -0.1 1.1 0.5
v -0.1 1.1 0.4
v -0.1 1.2 0.5
v -0.1 1.2 0.4
v -0.1 1.4 0.5
v -0.1 1.4 0.4
v -0.1 1.5 0.4
v -0.1 1.5 0.3
v -0.1 1.6 0.5
v -0.1 1.6 0.3
v 0 0 0.9
v 0 0 0.7
v 0 0 0.5
v 0 0 -0.1
v 0 0 -0.6
v 0 0 -1.1
v 0 0.1 0.9
v 0 0.1 0.7
v 0 0.4 -0.1
v 0 0.4 -0.6
v 0 0.5 0.3
v 0 0.5 0.2
v 0 0.6 0.3
v 0 0.6 0.2
v 0 0.6 -0.3
v 0 0.6 -0.4
v 0 0.6 -0.5
v 0 0.6 -1
v 0 0.7 0.5
v 0 0.7 0.4
v 0 0.7 -0.4
v 0 0.7 -0.5
v 0 0.8 0.5
v 0 0.8 0.4
v 0 0.8 0.3
v 0 0.8 -0.3
v 0 0.8 -0.4
v 0 0.8 -0.8
v 0 0.8 -0.9
v 0 0.8 -1
v 0 0.9 0.4
v 0 0.9 0.3
v 0 0.9 -0.3
v 0 0.9 -0.4
v 0 0.9 -0.8
v 0 0.9 -0.9
v 0 0.9 -1.1
v 0 1 0.2
v 0 1 0.1
v 0 1 -0.7
v 0 1 -0.9
v 0 1 -1.1
v 0 1.1 0.5
v 0 1.1 0.4
v 0 1.1 0.3
v 0 1.1 0.2
v 0 1.1 0.1
v 0 1.1 -0.3
v 0 1.1 -0.4
v 0 1.1 -0.5
v 0 1.1 -0.7
v 0 1.1 -0.9
v 0 1.2 0.5
v 0 1.2 0.4
v 0 1.2 0.3
v 0 1.2 -0.2
v 0 1.2 -0.3
v 0 1.2 -0.4
v 0 1.2 -0.5
v 0 1.2 -0.6
v 0 1.2 -0.7
v 0 1.3 0.3
v 0 1.3 0.2
v 0 1.3 -0.2
v 0 1.3 -0.3
v 0 1.3 -0.5
v 0 1.3 -0.6
v 0 1.4 0.5
v 0 1.4 0.4
v 0 1.4 0.3
v 0 1.4 0.2
v 0 1.4 -0.3
v 0 1.4 -0.4
v 0 1.4 -0.5
v 0 1.5 0.4
v 0 1.5 0.3
v 0 1.5 0.2
v 0 1.5 -0.3
v 0 1.5 -0.4
v 0 1.5 -0.5
v 0 1.6 0.3
v 0 1.6 0.2
v 0 1.6 -0.3
v 0 1.6 -0.4
v 0.1 1.1 0.4
v 0.1 1.1 0.3
v 0.1 1.2 0.4
v 0.1 1.2 0.3
v 0.2 0 1
v 0.2 0 0.9
v 0.2 0.1 1
v 0.2 0.1 0.9
v 0.2 1.2 0.4
v 0.2 1.2 0.3
v 0.2 1.4 0.4
v 0.2 1.4 0.3
v 0.6 0 0.7
v 0.6 0 0.6
v 0.6 0.1 0.7
v 0.6 0.1 0.6
v 0.1 0 1
v 0.1 0.1 1
v 0.2 0 1
v 0.2 0.1 1
v -0.6 0 0.9
v -0.6 0.1 0.9
v 0 0 0.9
v 0 0.1 0.9
v 0.5 0 0.7
v 0.5 0.1 0.7
v 0.6 0 0.7
v 0.6 0.1 0.7
v -1 0 0.5
v -1 0.5 0.5
v -1 0.6 0.5
v -1 1 0.5
v -1 1.1 0.5
v -1 1.5 0.5
v -0.9 0.5 0.5
v -0.9 0.6 0.5
v -0.9 0.7 0.5
v -0.9 0.8 0.5
v -0.9 1 0.5
v -0.9 1.1 0.5
v -0.9 1.5 0.5
v -0.9 1.6 0.5
v -0.8 0.1 0.5
v -0.8 0.2 0.5
v -0.8 0.7 0.5
v -0.8 0.8 0.5
v -0.8 1.3 0.5
v -0.8 1.4 0.5
v -0.8 1.5 0.5
v -0.8 1.6 0.5
v -0.7 0.1 0.5
v -0.7 0.2 0.5
v -0.7 0.4 0.5
v -0.7 0.5 0.5
v -0.7 1.3 0.5
v -0.7 1.4 0.5
v -0.6 0.3 0.5
v -0.6 0.4 0.5
v -0.6 0.5 0.5
v -0.6 0.6 0.5
v -0.6 0.8 0.5
v -0.6 0.9 0.5
v -0.6 1.1 0.5
v -0.6 1.2 0.5
v -0.6 1.4 0.5
v -0.4 0.5 0.5
v -0.4 0.6 0.5
v -0.3 0.5 0.5
v -0.3 0.6 0.5
v -0.2 1.3 0.5
v -0.2 1.4 0.5
v -0.1 0.3 0.5
v -0.1 0.5 0.5
v -0.1 0.6 0.5
v -0.1 0.7 0.5
v -0.1 0.8 0.5
v -0.1 0.9 0.5
v -0.1 1.1 0.5
v -0.1 1.2 0.5
v -0.1 1.3 0.5
v -0.1 1.4 0.5
v -0.1 1.6 0.5
v 0 0 0.5
v 0 0.7 0.5
v 0 0.8 0.5
v 0 1.1 0.5
v 0 1.2 0.5
v 0 1.4 0.5
v -1 0.5 0.4
v -1 0.6 0.4
v -1 1 0.4
v -1 1.1 0.4
v -1 1.5 0.4
v -1 1.6 0.4
v -0.9 0.5 0.4
v -0.9 0.6 0.4
v -0.9 0.7 0.4
v -0.9 0.8 0.4
v -0.9 1 0.4
v -0.9 1.1 0.4
v -0.9 1.5 0.4
v -0.9 1.6 0.4
v -0.8 0.7 0.4
v -0.8 0.8 0.4
v -0.2 1.3 0.4
v -0.2 1.4 0.4
v -0.1 1.1 0.4
v -0.1 1.2 0.4
v -0.1 1.3 0.4
v -0.1 1.4 0.4
v -0.1 1.5 0.4
v 0 1.1 0.4
v 0 1.2 0.4
v 0 1.4 0.4
v 0 1.5 0.4
v 0.1 1.1 0.4
v 0.1 1.2 0.4
v 0.2 1.2 0.4
v 0.2 1.4 0.4
v -0.1 1.5 0.3
v -0.1 1.6 0.3
v 0 1.5 0.3
v 0 1.6 0.3
v 0.1 0 0.9
v 0.1 0.1 0.9
v 0.2 0 0.9
v 0.2 0.1 0.9
v -0.6 0 0.7
v -0.6 0.1 0.7
v 0 0 0.7
v 0 0.1 0.7
v 0.5 0 0.6
v 0.5 0.1 0.6
v 0.6 0 0.6
v 0.6 0.1 0.6
v 0 1.1 0.3
v 0 1.2 0.3
v 0 1.3 0.3
v 0 1.4 0.3
v 0.1 1.1 0.3
v 0.1 1.2 0.3
v 0.2 1.2 0.3
v 0.2 1.4 0.3
v -1 1.5 -0.4
v -1 1.6 -0.4
v 0 1.5 -0.4
v 0 1.6 -0.4
v -1 1.3 -0.5
v -1 1.5 -0.5
v -0.1 1.3 -0.5
v -0.1 1.4 -0.5
v 0 1.3 -0.5
v 0 1.4 -0.5
v 0 1.5 -0.5
v -1 1.2 -0.6
v -1 1.3 -0.6
v 0 1.2 -0.6
v 0 1.3 -0.6
v -0.8 1.1 -0.7
v -0.8 1.2 -0.7
v 0 1.1 -0.7
v 0 1.2 -0.7
v -1 1 -0.8
v -1 1.2 -0.8
v -0.8 1 -0.8
v -0.8 1.1 -0.8
v -0.8 1.2 -0.8
v -0.8 1 -0.9
v -0.8 1.1 -0.9
v 0 1 -0.9
v 0 1.1 -0.9
v -1 0 -1.1
v -1 0.9 -1.1
v -1 1 -1.1
v 0 0 -1.1
v 0 0.9 -1.1
v 0 1 -1.1
v 0.1 0 1
v 0.2 0 1
v -0.6 0 0.9
v 0 0 0.9
v 0.1 0 0.9
v 0.2 0 0.9
v -0.6 0 0.7
v 0 0 0.7
v 0.5 0 0.7
v 0.6 0 0.7
v 0.5 0 0.6
v 0.6 0 0.6
v -1 0 0.5
v 0 0 0.5
v -0.1 0 -0.1
v 0 0 -0.1
v -0.1 0 -0.6
v 0 0 -0.6
v -1 0 -1.1
v 0 0 -1.1
v -1 0.6 0.5
v -0.9 0.6 0.5
v -1 0.6 0.4
v -0.9 0.6 0.4
v -0.9 0.8 0.5
v -0.8 0.8 0.5
v -0.9 0.8 0.4
v -0.8 0.8 0.4
v -1 1.1 0.5
v -0.9 1.1 0.5
v -1 1.1 0.4
v -0.9 1.1 0.4
v 0 1.1 0.4
v 0.1 1.1 0.4
v 0 1.1 0.3
v 0.1 1.1 0.3
v -0.1 1.2 0.5
v 0 1.2 0.5
v -0.1 1.2 0.4
v 0 1.2 0.4
v 0.1 1.2 0.4
v 0.2 1.2 0.4
v 0.1 1.2 0.3
v 0.2 1.2 0.3
v -0.2 1.4 0.5
v -0.1 1.4 0.5
v -0.2 1.4 0.4
v -0.1 1.4 0.4
v 0.1 0.1 1
v 0.2 0.1 1
v -0.6 0.1 0.9
v 0 0.1 0.9
v 0.1 0.1 0.9
v 0.2 0.1 0.9
v -0.6 0.1 0.7
v 0 0.1 0.7
v 0.5 0.1 0.7
v 0.6 0.1 0.7
v 0.5 0.1 0.6
v 0.6 0.1 0.6
v -1 0.5 0.5
v -0.9 0.5 0.5
v -1 0.5 0.4
v -0.9 0.5 0.4
v -0.9 0.7 0.5
v -0.8 0.7 0.5
v -0.9 0.7 0.4
v -0.8 0.7 0.4
v -1 1 0.5
v -0.9 1 0.5
v -1 1 0.4
v -0.9 1 0.4
v -1 1 -0.8
v -0.8 1 -0.8
v -0.8 1 -0.9
v 0 1 -0.9
v -1 1 -1.1
v 0 1 -1.1
v -0.1 1.1 0.5
v 0 1.1 0.5
v -0.1 1.1 0.4
v 0 1.1 0.4
v -0.8 1.1 -0.7
v 0 1.1 -0.7
v -0.8 1.1 -0.8
v -0.8 1.1 -0.9
v 0 1.1 -0.9
v -1 1.2 -0.6
v 0 1.2 -0.6
v -0.8 1.2 -0.7
v 0 1.2 -0.7
v -1 1.2 -0.8
v -0.8 1.2 -0.8
v -0.2 1.3 0.5
v -0.1 1.3 0.5
v -0.2 1.3 0.4
v -0.1 1.3 0.4
v -1 1.3 -0.5
v -0.1 1.3 -0.5
v 0 1.3 -0.5
v -1 1.3 -0.6
v 0 1.3 -0.6
v -0.1 1.4 0.5
v 0 1.4 0.5
v -0.1 1.4 0.4
v 0 1.4 0.4
v 0.2 1.4 0.4
v 0 1.4 0.3
v 0.2 1.4 0.3
v -1 1.5 0.5
v -0.9 1.5 0.5
v -1 1.5 0.4
v -0.9 1.5 0.4
v -0.1 1.5 0.4
v 0 1.5 0.4
v -0.1 1.5 0.3
v 0 1.5 0.3
v -1 1.5 -0.4
v 0 1.5 -0.4
v -1 1.5 -0.5
v 0 1.5 -0.5
v -0.9 1.6 0.5
v -0.8 1.6 0.5
v -0.1 1.6 0.5
v -1 1.6 0.4
v -0.9 1.6 0.4
v -0.8 1.6 0.4
v -0.7 1.6 0.4
v -0.6 1.6 0.4
v -0.4 1.6 0.4
v -0.3 1.6 0.4
v -0.7 1.6 0.3
v -0.6 1.6 0.3
v -0.4 1.6 0.3
v -0.3 1.6 0.3
v -0.1 1.6 0.3
v 0 1.6 0.3
v -0.2 1.6 0.2
v -0.1 1.6 0.2
v 0 1.6 0.2
v -0.2 1.6 0.1
v -0.1 1.6 0.1
v -1 1.6 -0.3
v 0 1.6 -0.3
v -1 1.6 -0.4
v 0 1.6 -0.4

# faces
f 3/4/1 2/4/1 1/4/1
f 4/4/1 2/4/1 3/4/1
f 6/4/1 2/4/1 4/4/1
f 7/4/1 2/4/1 6/4/1
f 7/4/1 6/4/1 5/4/1
f 8/4/1 2/4/1 7/4/1
f 9/4/1 7/4/1 5/4/1
f 10/4/1 7/4/1 9/4/1
f 11/5/1 8/5/1 7/5/1
f 12/5/1 8/5/1 11/5/1
f 14/4/1 7/4/1 10/4/1
f 15/5/1 11/5/1 7/5/1
f 16/5/1 11/5/1 15/5/1
f 17/5/1 15/5/1 7/5/1
f 18/5/1 15/5/1 17/5/1
f 19/4/1 14/4/1 13/4/1
f 20/4/1 7/4/1 14/4/1
f 20/4/1 14/4/1 19/4/1
f 21/4/1 7/4/1 20/4/1
f 22/5/1 17/5/1 7/5/1
f 22/4/1 7/4/1 21/4/1
f 23/5/1 17/5/1 22/5/1
f 24/4/1 21/4/1 20/4/1
f 25/5/1 22/5/1 21/5/1
f 25/4/1 21/4/1 24/4/1
f 26/5/1 22/5/1 25/5/1
f 29/4/1 28/4/1 27/4/1
f 30/4/1 28/4/1 29/4/1
f 33/4/1 32/4/1 31/4/1
f 34/4/1 32/4/1 33/4/1
f 37/5/1 36/5/1 35/5/1
f 38/5/1 36/5/1 37/5/1
f 41/4/1 40/4/1 39/4/1
f 42/4/1 40/4/1 41/4/1
f 45/5/1 44/5/1 43/5/1
f 46/5/1 44/5/1 45/5/1
f 49/1/1 48/1/1 47/1/1
f 50/1/1 48/1/1 49/1/1
f 53/4/1 52/4/1 51/4/1
f 54/4/1 52/4/1 53/4/1
f 57/1/1 56/1/1 55/1/1
f 58/1/1 56/1/1 57/1/1
f 61/3/1 60/3/1 59/3/1
f 62/3/1 60/3/1 61/3/1
f 63/4/2 64/4/2 65/4/2
f 65/4/2 64/4/2 66/4/2
f 67/5/2 68/5/2 69/5/2
f 69/5/2 68/5/2 70/5/2
f 71/2/2 72/2/2 73/2/2
f 73/2/2 72/2/2 74/2/2
f 75/4/2 76/4/2 77/4/2
f 77/4/2 76/4/2 78/4/2
f 79/4/2 80/4/2 81/4/2
f 79/4/2 81/4/2 83/4/2
f 81/4/2 82/4/2 83/4/2
f 83/4/2 82/4/2 84/4/2
f 85/1/2 86/1/2 91/1/2
f 91/1/2 86/1/2 92/1/2
f 87/4/2 88/4/2 93/4/2
f 88/7/2 89/7/2 93/7/2
f 89/4/2 90/4/2 94/4/2
f 93/7/2 89/7/2 94/7/2
f 87/4/2 93/4/2 95/4/2
f 93/4/2 94/4/2 95/4/2
f 95/4/2 94/4/2 96/4/2
f 87/4/2 95/4/2 97/4/2
f 95/5/2 96/5/2 97/5/2
f 96/4/2 94/4/2 98/4/2
f 97/5/2 96/5/2 98/5/2
f 98/4/2 94/4/2 99/4/2
f 99/4/2 94/4/2 100/4/2
f 100/4/2 94/4/2 101/4/2
f 94/4/2 90/4/2 102/4/2
f 101/4/2 94/4/2 102/4/2
f 87/4/2 97/4/2 103/4/2
f 103/4/2 97/4/2 104/4/2
f 100/6/2 101/6/2 105/6/2
f 99/4/2 100/4/2 105/4/2
f 101/2/2 102/2/2 106/2/2
f 105/6/2 101/6/2 106/6/2
f 103/5/2 104/5/2 107/5/2
f 104/4/2 97/4/2 108/4/2
f 107/5/2 104/5/2 108/5/2
f 97/2/2 98/2/2 109/2/2
f 108/4/2 97/4/2 109/4/2
f 98/2/2 99/2/2 109/2/2
f 99/4/2 105/4/2 110/4/2
f 109/2/2 99/2/2 110/2/2
f 105/2/2 106/2/2 111/2/2
f 110/4/2 105/4/2 111/4/2
f 106/2/2 102/2/2 112/2/2
f 111/2/2 106/2/2 112/2/2
f 112/2/2 102/2/2 113/2/2
f 102/4/2 90/4/2 114/4/2
f 113/2/2 102/2/2 114/2/2
f 107/4/2 108/4/2 115/4/2
f 108/5/2 109/5/2 115/5/2
f 109/4/2 110/4/2 116/4/2
f 115/5/2 109/5/2 116/5/2
f 110/4/2 111/4/2 116/4/2
f 111/4/2 112/4/2 116/4/2
f 116/4/2 112/4/2 117/4/2
f 117/4/2 112/4/2 118/4/2
f 112/5/2 113/5/2 119/5/2
f 118/4/2 112/4/2 119/4/2
f 113/4/2 114/4/2 120/4/2
f 119/5/2 113/5/2 120/5/2
f 114/4/2 90/4/2 121/4/2
f 120/4/2 114/4/2 121/4/2
f 116/2/2 117/2/2 122/2/2
f 122/2/2 117/2/2 123/2/2
f 119/2/2 120/2/2 124/2/2
f 118/2/2 119/2/2 124/2/2
f 120/5/2 121/5/2 125/5/2
f 124/2/2 120/2/2 125/2/2
f 125/5/2 121/5/2 126/5/2
f 107/4/2 115/4/2 127/4/2
f 115/4/2 116/4/2 127/4/2
f 127/4/2 116/4/2 128/4/2
f 116/2/2 122/2/2 129/2/2
f 128/4/2 116/4/2 129/4/2
f 122/5/2 123/5/2 130/5/2
f 129/2/2 122/2/2 130/2/2
f 123/2/2 117/2/2 131/2/2
f 130/5/2 123/5/2 131/5/2
f 117/4/2 118/4/2 132/4/2
f 131/2/2 117/2/2 132/2/2
f 118/2/2 124/2/2 133/2/2
f 132/4/2 118/4/2 133/4/2
f 133/2/2 124/2/2 134/2/2
f 124/5/2 125/5/2 135/5/2
f 134/2/2 124/2/2 135/2/2
f 135/5/2 125/5/2 136/5/2
f 130/4/2 131/4/2 139/4/2
f 129/4/2 130/4/2 139/4/2
f 132/4/2 133/4/2 139/4/2
f 133/4/2 134/4/2 139/4/2
f 131/4/2 132/4/2 139/4/2
f 139/4/2 134/4/2 140/4/2
f 140/4/2 134/4/2 141/4/2
f 141/4/2 134/4/2 142/4/2
f 134/5/2 135/5/2 143/5/2
f 142/4/2 134/4/2 143/4/2
f 143/5/2 135/5/2 144/5/2
f 144/5/2 135/5/2 145/5/2
f 139/2/2 140/2/2 146/2/2
f 146/2/2 140/2/2 147/2/2
f 140/6/2 141/6/2 148/6/2
f 147/2/2 140/2/2 148/2/2
f 141/4/2 142/4/2 149/4/2
f 148/6/2 141/6/2 149/6/2
f 142/2/2 143/2/2 150/2/2
f 143/5/2 144/5/2 150/5/2
f 150/5/2 144/5/2 151/5/2
f 137/4/2 138/4/2 152/4/2
f 152/4/2 138/4/2 153/4/2
f 146/6/2 147/6/2 154/6/2
f 147/2/2 148/2/2 155/2/2
f 148/2/2 149/2/2 155/2/2
f 154/6/2 147/6/2 155/6/2
f 149/4/2 142/4/2 156/4/2
f 155/2/2 149/2/2 156/2/2
f 142/2/2 150/2/2 157/2/2
f 156/4/2 142/4/2 157/4/2
f 157/2/2 150/2/2 158/2/2
f 153/4/2 154/4/2 159/4/2
f 154/4/2 155/4/2 159/4/2
f 156/4/2 157/4/2 159/4/2
f 155/4/2 156/4/2 159/4/2
f 159/4/2 157/4/2 160/4/2
f 160/4/2 157/4/2 161/4/2
f 161/4/2 157/4/2 162/4/2
f 157/5/2 158/5/2 163/5/2
f 162/4/2 157/4/2 163/4/2
f 163/5/2 158/5/2 164/5/2
f 160/5/2 161/5/2 165/5/2
f 161/4/2 162/4/2 166/4/2
f 165/5/2 161/5/2 166/5/2
f 162/5/2 163/5/2 167/5/2
f 166/4/2 162/4/2 167/4/2
f 167/5/2 163/5/2 168/5/2
f 169/3/2 170/3/2 171/3/2
f 171/3/2 170/3/2 172/3/2
f 173/1/2 174/1/2 175/1/2
f 175/1/2 174/1/2 176/1/2
f 177/3/2 178/3/2 179/3/2
f 179/3/2 178/3/2 180/3/2
f 181/3/2 182/3/2 183/3/2
f 183/3/2 182/3/2 184/3/2
f 187/1/3 186/1/3 185/1/3
f 188/1/3 186/1/3 187/1/3
f 191/1/3 190/1/3 189/1/3
f 192/1/3 190/1/3 191/1/3
f 195/3/3 194/3/3 193/3/3
f 196/3/3 194/3/3 195/3/3
f 203/4/3 198/4/3 197/4/3
f 204/4/3 200/4/3 199/4/3
f 205/4/3 200/4/3 204/4/3
f 206/4/3 200/4/3 205/4/3
f 207/4/3 200/4/3 206/4/3
f 208/4/3 202/4/3 201/4/3
f 209/4/3 202/4/3 208/4/3
f 211/4/3 203/4/3 197/4/3
f 211/4/3 204/4/3 203/4/3
f 211/4/3 205/4/3 204/4/3
f 212/4/3 205/4/3 211/4/3
f 213/4/3 205/4/3 212/4/3
f 214/4/3 207/4/3 206/4/3
f 214/4/3 209/4/3 208/4/3
f 214/4/3 208/4/3 207/4/3
f 215/4/3 209/4/3 214/4/3
f 216/4/3 209/4/3 215/4/3
f 217/5/3 210/5/3 209/5/3
f 217/4/3 209/4/3 216/4/3
f 218/5/3 210/5/3 217/5/3
f 219/5/3 212/5/3 211/5/3
f 219/4/3 211/4/3 197/4/3
f 220/4/3 213/4/3 212/4/3
f 220/5/3 212/5/3 219/5/3
f 220/4/3 214/4/3 213/4/3
f 220/4/3 215/4/3 214/4/3
f 221/4/3 215/4/3 220/4/3
f 222/4/3 215/4/3 221/4/3
f 223/5/3 216/5/3 215/5/3
f 223/4/3 215/4/3 222/4/3
f 224/4/3 218/4/3 217/4/3
f 224/5/3 216/5/3 223/5/3
f 224/4/3 217/4/3 216/4/3
f 225/4/3 221/4/3 220/4/3
f 225/4/3 220/4/3 219/4/3
f 226/5/3 222/5/3 221/5/3
f 226/4/3 221/4/3 225/4/3
f 227/4/3 223/4/3 222/4/3
f 227/5/3 222/5/3 226/5/3
f 227/4/3 224/4/3 223/4/3
f 228/4/3 224/4/3 227/4/3
f 229/4/3 224/4/3 228/4/3
f 230/4/3 224/4/3 229/4/3
f 231/4/3 224/4/3 230/4/3
f 232/4/3 224/4/3 231/4/3
f 233/4/3 218/4/3 224/4/3
f 233/4/3 224/4/3 232/4/3
f 234/2/3 226/2/3 225/2/3
f 234/2/3 227/2/3 226/2/3
f 234/4/3 228/4/3 227/4/3
f 235/2/3 229/2/3 228/2/3
f 235/4/3 228/4/3 234/4/3
f 236/2/3 234/2/3 225/2/3
f 236/5/3 235/5/3 234/5/3
f 237/2/3 229/2/3 235/2/3
f 237/5/3 235/5/3 236/5/3
f 238/2/3 233/2/3 232/2/3
f 239/4/3 218/4/3 233/4/3
f 239/2/3 233/2/3 238/2/3
f 240/4/3 225/4/3 219/4/3
f 240/2/3 236/2/3 225/2/3
f 241/4/3 237/4/3 236/4/3
f 241/2/3 236/2/3 240/2/3
f 242/2/3 229/2/3 237/2/3
f 242/4/3 237/4/3 241/4/3
f 243/2/3 229/2/3 242/2/3
f 244/4/3 230/4/3 229/4/3
f 244/2/3 229/2/3 243/2/3
f 245/2/3 231/2/3 230/2/3
f 245/4/3 230/4/3 244/4/3
f 246/4/3 232/4/3 231/4/3
f 246/2/3 231/2/3 245/2/3
f 247/2/3 238/2/3 232/2/3
f 247/4/3 232/4/3 246/4/3
f 248/2/3 238/2/3 247/2/3
f 249/4/3 218/4/3 239/4/3
f 250/4/3 218/4/3 249/4/3
f 251/4/3 219/4/3 197/4/3
f 251/4/3 241/4/3 240/4/3
f 251/4/3 240/4/3 219/4/3
f 251/4/3 243/4/3 242/4/3
f 251/4/3 242/4/3 241/4/3
f 252/5/3 244/5/3 243/5/3
f 252/4/3 243/4/3 251/4/3
f 253/4/3 246/4/3 245/4/3
f 253/5/3 244/5/3 252/5/3
f 253/4/3 245/4/3 244/4/3
f 254/4/3 246/4/3 253/4/3
f 255/4/3 248/4/3 247/4/3
f 255/4/3 249/4/3 248/4/3
f 256/4/3 249/4/3 255/4/3
f 263/4/3 258/4/3 257/4/3
f 264/4/3 258/4/3 263/4/3
f 267/4/3 260/4/3 259/4/3
f 268/4/3 260/4/3 267/4/3
f 269/4/3 262/4/3 261/4/3
f 270/4/3 262/4/3 269/4/3
f 271/4/3 266/4/3 265/4/3
f 272/4/3 266/4/3 271/4/3
f 277/4/3 274/4/3 273/4/3
f 278/4/3 274/4/3 277/4/3
f 280/4/3 276/4/3 275/4/3
f 281/4/3 276/4/3 280/4/3
f 282/4/3 279/4/3 278/4/3
f 283/4/3 279/4/3 282/4/3
f 284/3/3 281/3/3 280/3/3
f 284/3/3 282/3/3 281/3/3
f 285/3/3 282/3/3 284/3/3
f 286/3/3 282/3/3 285/3/3
f 287/3/3 282/3/3 286/3/3
f 290/5/3 289/5/3 288/5/3
f 291/5/3 289/5/3 290/5/3
f 292/1/4 293/1/4 294/1/4
f 294/1/4 293/1/4 295/1/4
f 296/1/4 297/1/4 298/1/4
f 298/1/4 297/1/4 299/1/4
f 300/3/4 301/3/4 302/3/4
f 302/3/4 301/3/4 303/3/4
f 304/3/4 305/3/4 308/3/4
f 306/3/4 307/3/4 308/3/4
f 305/3/4 306/3/4 308/3/4
f 308/3/4 307/3/4 309/3/4
f 309/3/4 307/3/4 310/3/4
f 310/3/4 307/3/4 311/3/4
f 312/5/4 313/5/4 314/5/4
f 314/5/4 313/5/4 315/5/4
f 316/5/4 317/5/4 318/5/4
f 318/5/4 317/5/4 319/5/4
f 318/2/4 319/2/4 320/2/4
f 319/5/4 317/5/4 321/5/4
f 320/2/4 319/2/4 321/2/4
f 321/5/4 317/5/4 322/5/4
f 323/5/4 324/5/4 325/5/4
f 325/5/4 324/5/4 326/5/4
f 327/5/4 328/5/4 329/5/4
f 329/5/4 328/5/4 330/5/4
f 331/5/4 332/5/4 333/5/4
f 333/5/4 332/5/4 334/5/4
f 334/5/4 332/5/4 335/5/4
f 336/5/4 337/5/4 338/5/4
f 338/5/4 337/5/4 339/5/4
f 340/4/4 341/4/4 343/4/4
f 341/5/4 342/5/4 344/5/4
f 343/4/4 341/4/4 344/4/4
f 344/5/4 342/5/4 345/5/4
f 350/1/5 347/1/5 346/1/5
f 351/1/5 347/1/5 350/1/5
f 352/1/5 349/1/5 348/1/5
f 353/1/5 349/1/5 352/1/5
f 356/3/5 355/3/5 354/3/5
f 357/3/5 355/3/5 356/3/5
f 360/4/5 359/4/5 358/4/5
f 361/4/5 359/4/5 360/4/5
f 362/4/5 360/4/5 358/4/5
f 362/7/5 361/7/5 360/7/5
f 363/7/5 361/7/5 362/7/5
f 364/4/5 362/4/5 358/4/5
f 364/4/5 363/4/5 362/4/5
f 365/4/5 363/4/5 364/4/5
f 368/4/5 367/4/5 366/4/5
f 369/4/5 367/4/5 368/4/5
f 372/4/5 371/4/5 370/4/5
f 373/4/5 371/4/5 372/4/5
f 376/4/5 375/4/5 374/4/5
f 377/4/5 375/4/5 376/4/5
f 380/3/5 379/3/5 378/3/5
f 381/3/5 379/3/5 380/3/5
f 384/4/5 383/4/5 382/4/5
f 385/4/5 383/4/5 384/4/5
f 388/3/5 387/3/5 386/3/5
f 389/3/5 387/3/5 388/3/5
f 392/4/5 391/4/5 390/4/5
f 393/4/5 391/4/5 392/4/5
f 394/1/6 395/1/6 398/1/6
f 398/1/6 395/1/6 399/1/6
f 396/1/6 397/1/6 400/1/6
f 400/1/6 397/1/6 401/1/6
f 402/3/6 403/3/6 404/3/6
f 404/3/6 403/3/6 405/3/6
f 406/4/6 407/4/6 408/4/6
f 408/4/6 407/4/6 409/4/6
f 410/4/6 411/4/6 412/4/6
f 412/4/6 411/4/6 413/4/6
f 414/4/6 415/4/6 416/4/6
f 416/4/6 415/4/6 417/4/6
f 418/5/6 419/5/6 420/5/6
f 418/5/6 420/5/6 422/5/6
f 420/5/6 421/5/6 422/5/6
f 422/5/6 421/5/6 423/5/6
f 424/4/6 425/4/6 426/4/6
f 426/4/6 425/4/6 427/4/6
f 428/5/6 429/5/6 430/5/6
f 430/5/6 429/5/6 431/5/6
f 431/5/6 429/5/6 432/5/6
f 433/5/6 434/5/6 435/5/6
f 435/5/6 434/5/6 436/5/6
f 433/5/6 435/5/6 437/5/6
f 437/5/6 435/5/6 438/5/6
f 439/2/6 440/2/6 441/2/6
f 441/2/6 440/2/6 442/2/6
f 443/5/6 444/5/6 446/5/6
f 444/5/6 445/5/6 446/5/6
f 446/5/6 445/5/6 447/5/6
f 448/4/6 449/4/6 450/4/6
f 450/4/6 449/4/6 451/4/6
f 451/3/6 452/3/6 453/3/6
f 453/3/6 452/3/6 454/3/6
f 455/4/6 456/4/6 457/4/6
f 457/4/6 456/4/6 458/4/6
f 459/4/6 460/4/6 461/4/6
f 461/4/6 460/4/6 462/4/6
f 463/5/6 464/5/6 465/5/6
f 465/5/6 464/5/6 466/5/6
f 467/5/6 468/5/6 471/5/6
f 468/4/6 469/4/6 472/4/6
f 471/5/6 468/5/6 472/5/6
f 472/4/6 469/4/6 473/4/6
f 473/4/6 469/4/6 474/4/6
f 474/4/6 469/4/6 475/4/6
f 475/4/6 469/4/6 476/4/6
f 470/4/6 471/4/6 477/4/6
f 471/4/6 472/4/6 477/4/6
f 472/4/6 473/4/6 477/4/6
f 473/5/6 474/5/6 477/5/6
f 474/4/6 475/4/6 478/4/6
f 477/5/6 474/5/6 478/5/6
f 475/5/6 476/5/6 479/5/6
f 478/4/6 475/4/6 479/4/6
f 476/4/6 469/4/6 480/4/6
f 479/5/6 476/5/6 480/5/6
f 480/4/6 469/4/6 481/4/6
f 478/4/6 479/4/6 483/4/6
f 477/4/6 478/4/6 483/4/6
f 480/4/6 481/4/6 483/4/6
f 479/4/6 480/4/6 483/4/6
f 481/5/6 482/5/6 484/5/6
f 483/4/6 481/4/6 484/4/6
f 484/5/6 482/5/6 485/5/6
f 477/4/6 483/4/6 486/4/6
f 483/5/6 484/5/6 486/5/6
f 484/4/6 485/4/6 487/4/6
f 486/5/6 484/5/6 487/5/6
f 470/4/6 477/4/6 488/4/6
f 477/4/6 486/4/6 488/4/6
f 486/4/6 487/4/6 488/4/6
f 487/4/6 485/4/6 489/4/6
f 488/4/6 487/4/6 489/4/6
f 488/5/6 489/5/6 490/5/6
f 490/5/6 489/5/6 491/5/6
