# MagicaVoxel @ Ephtracy

# group
o 

# material
mtllib Road1.mtl
usemtl palette

# normals
vn -1 0 0
vn 1 0 0
vn 0 0 1
vn 0 0 -1
vn 0 -1 0
vn 0 1 0

# texcoords
vt 0.966797 0.5
vt 0.974609 0.5
vt 0.982422 0.5
vt 0.994141 0.5

# verts
v -4.8 0 4.8
v -4.8 0 -4.9
v -4.8 0.1 4.8
v -4.8 0.1 -4.9
v -2.4 0.1 4.8
v -2.4 0.1 -4.9
v -2.4 0.3 4.8
v -2.4 0.3 -4.9
v 2.2 0.1 4.8
v 2.2 0.1 -4.9
v 2.2 0.3 4.8
v 2.2 0.3 -4.9
v -2 0.1 4.8
v -2 0.1 -4.9
v -2 0.3 4.8
v -2 0.3 -4.9
v 2.6 0.1 4.8
v 2.6 0.1 -4.9
v 2.6 0.3 4.8
v 2.6 0.3 -4.9
v 4.9 0 4.8
v 4.9 0 -4.9
v 4.9 0.1 4.8
v 4.9 0.1 -4.9
v -4.8 0 4.8
v -4.8 0.1 4.8
v -2.4 0.1 4.8
v -2.4 0.3 4.8
v -2.1 0 4.8
v -2.1 0.1 4.8
v -2 0.1 4.8
v -2 0.3 4.8
v 2.2 0.1 4.8
v 2.2 0.3 4.8
v 2.3 0 4.8
v 2.3 0.1 4.8
v 2.6 0.1 4.8
v 2.6 0.3 4.8
v 4.9 0 4.8
v 4.9 0.1 4.8
v -4.8 0 -4.9
v -4.8 0.1 -4.9
v -2.4 0.1 -4.9
v -2.4 0.3 -4.9
v -2.1 0 -4.9
v -2.1 0.1 -4.9
v -2 0.1 -4.9
v -2 0.3 -4.9
v 2.2 0.1 -4.9
v 2.2 0.3 -4.9
v 2.3 0 -4.9
v 2.3 0.1 -4.9
v 2.6 0.1 -4.9
v 2.6 0.3 -4.9
v 4.9 0 -4.9
v 4.9 0.1 -4.9
v -4.8 0 4.8
v -2.1 0 4.8
v 2.3 0 4.8
v 4.9 0 4.8
v -0.0999999 0 4.7
v 0.3 0 4.7
v -0.0999999 0 3
v 0.3 0 3
v -0.0999999 0 2.5
v 0.3 0 2.5
v -0.0999999 0 0.6
v 0.3 0 0.6
v -0.0999999 0 0
v 0.3 0 0
v -0.0999999 0 -2.1
v 0.3 0 -2.1
v -0.0999999 0 -2.7
v 0.3 0 -2.7
v -0.0999999 0 -4.8
v 0.3 0 -4.8
v -4.8 0 -4.9
v -2.1 0 -4.9
v 2.3 0 -4.9
v 4.9 0 -4.9
v -4.8 0.1 4.8
v -2.4 0.1 4.8
v -2 0.1 4.8
v 2.2 0.1 4.8
v 2.6 0.1 4.8
v 4.9 0.1 4.8
v -0.0999999 0.1 4.7
v 0.3 0.1 4.7
v -0.0999999 0.1 3
v 0.3 0.1 3
v -0.0999999 0.1 2.5
v 0.3 0.1 2.5
v -0.0999999 0.1 0.6
v 0.3 0.1 0.6
v -0.0999999 0.1 0
v 0.3 0.1 0
v -0.0999999 0.1 -2.1
v 0.3 0.1 -2.1
v -0.0999999 0.1 -2.7
v 0.3 0.1 -2.7
v -0.0999999 0.1 -4.8
v 0.3 0.1 -4.8
v -4.8 0.1 -4.9
v -2.4 0.1 -4.9
v -2 0.1 -4.9
v 2.2 0.1 -4.9
v 2.6 0.1 -4.9
v 4.9 0.1 -4.9
v -2.4 0.3 4.8
v -2 0.3 4.8
v 2.2 0.3 4.8
v 2.6 0.3 4.8
v -2.4 0.3 -4.9
v -2 0.3 -4.9
v 2.2 0.3 -4.9
v 2.6 0.3 -4.9

# faces
f 3/3/1 2/3/1 1/3/1
f 4/3/1 2/3/1 3/3/1
f 7/2/1 6/2/1 5/2/1
f 8/2/1 6/2/1 7/2/1
f 11/2/1 10/2/1 9/2/1
f 12/2/1 10/2/1 11/2/1
f 13/2/2 14/2/2 15/2/2
f 15/2/2 14/2/2 16/2/2
f 17/2/2 18/2/2 19/2/2
f 19/2/2 18/2/2 20/2/2
f 21/3/2 22/3/2 23/3/2
f 23/3/2 22/3/2 24/3/2
f 27/3/3 26/3/3 25/3/3
f 29/3/3 27/3/3 25/3/3
f 30/2/3 28/2/3 27/2/3
f 30/3/3 27/3/3 29/3/3
f 31/4/3 30/4/3 29/4/3
f 31/2/3 28/2/3 30/2/3
f 32/2/3 28/2/3 31/2/3
f 33/4/3 31/4/3 29/4/3
f 35/4/3 33/4/3 29/4/3
f 36/2/3 34/2/3 33/2/3
f 36/4/3 33/4/3 35/4/3
f 37/3/3 36/3/3 35/3/3
f 37/2/3 34/2/3 36/2/3
f 38/2/3 34/2/3 37/2/3
f 39/3/3 37/3/3 35/3/3
f 40/3/3 37/3/3 39/3/3
f 41/3/4 42/3/4 43/3/4
f 41/3/4 43/3/4 45/3/4
f 43/2/4 44/2/4 46/2/4
f 45/3/4 43/3/4 46/3/4
f 45/4/4 46/4/4 47/4/4
f 46/2/4 44/2/4 47/2/4
f 47/2/4 44/2/4 48/2/4
f 45/4/4 47/4/4 49/4/4
f 45/4/4 49/4/4 51/4/4
f 49/2/4 50/2/4 52/2/4
f 51/4/4 49/4/4 52/4/4
f 51/3/4 52/3/4 53/3/4
f 52/2/4 50/2/4 53/2/4
f 53/2/4 50/2/4 54/2/4
f 51/3/4 53/3/4 55/3/4
f 55/3/4 53/3/4 56/3/4
f 61/4/5 59/4/5 58/4/5
f 62/4/5 59/4/5 61/4/5
f 63/4/5 61/4/5 58/4/5
f 63/1/5 62/1/5 61/1/5
f 64/4/5 59/4/5 62/4/5
f 64/1/5 62/1/5 63/1/5
f 65/4/5 63/4/5 58/4/5
f 65/4/5 64/4/5 63/4/5
f 66/4/5 59/4/5 64/4/5
f 66/4/5 64/4/5 65/4/5
f 67/4/5 65/4/5 58/4/5
f 67/1/5 66/1/5 65/1/5
f 68/4/5 59/4/5 66/4/5
f 68/1/5 66/1/5 67/1/5
f 69/4/5 67/4/5 58/4/5
f 69/4/5 68/4/5 67/4/5
f 70/4/5 59/4/5 68/4/5
f 70/4/5 68/4/5 69/4/5
f 71/4/5 69/4/5 58/4/5
f 71/1/5 70/1/5 69/1/5
f 72/4/5 59/4/5 70/4/5
f 72/1/5 70/1/5 71/1/5
f 73/4/5 71/4/5 58/4/5
f 73/4/5 72/4/5 71/4/5
f 74/4/5 59/4/5 72/4/5
f 74/4/5 72/4/5 73/4/5
f 75/4/5 73/4/5 58/4/5
f 75/1/5 74/1/5 73/1/5
f 76/4/5 59/4/5 74/4/5
f 76/1/5 74/1/5 75/1/5
f 77/3/5 58/3/5 57/3/5
f 78/4/5 75/4/5 58/4/5
f 78/3/5 58/3/5 77/3/5
f 78/4/5 76/4/5 75/4/5
f 79/4/5 59/4/5 76/4/5
f 79/4/5 76/4/5 78/4/5
f 79/3/5 60/3/5 59/3/5
f 80/3/5 60/3/5 79/3/5
f 83/4/6 84/4/6 87/4/6
f 87/4/6 84/4/6 88/4/6
f 83/4/6 87/4/6 89/4/6
f 87/1/6 88/1/6 89/1/6
f 88/4/6 84/4/6 90/4/6
f 89/1/6 88/1/6 90/1/6
f 83/4/6 89/4/6 91/4/6
f 89/4/6 90/4/6 91/4/6
f 90/4/6 84/4/6 92/4/6
f 91/4/6 90/4/6 92/4/6
f 83/4/6 91/4/6 93/4/6
f 91/1/6 92/1/6 93/1/6
f 92/4/6 84/4/6 94/4/6
f 93/1/6 92/1/6 94/1/6
f 83/4/6 93/4/6 95/4/6
f 93/4/6 94/4/6 95/4/6
f 94/4/6 84/4/6 96/4/6
f 95/4/6 94/4/6 96/4/6
f 83/4/6 95/4/6 97/4/6
f 95/1/6 96/1/6 97/1/6
f 96/4/6 84/4/6 98/4/6
f 97/1/6 96/1/6 98/1/6
f 83/4/6 97/4/6 99/4/6
f 97/4/6 98/4/6 99/4/6
f 98/4/6 84/4/6 100/4/6
f 99/4/6 98/4/6 100/4/6
f 83/4/6 99/4/6 101/4/6
f 99/1/6 100/1/6 101/1/6
f 100/4/6 84/4/6 102/4/6
f 101/1/6 100/1/6 102/1/6
f 81/3/6 82/3/6 103/3/6
f 103/3/6 82/3/6 104/3/6
f 83/4/6 101/4/6 105/4/6
f 101/4/6 102/4/6 105/4/6
f 102/4/6 84/4/6 106/4/6
f 105/4/6 102/4/6 106/4/6
f 85/3/6 86/3/6 107/3/6
f 107/3/6 86/3/6 108/3/6
f 109/2/6 110/2/6 113/2/6
f 113/2/6 110/2/6 114/2/6
f 111/2/6 112/2/6 115/2/6
f 115/2/6 112/2/6 116/2/6
