# MagicaVoxel @ Ephtracy

# group
o 

# material
mtllib 진드기.mtl
usemtl palette

# normals
vn -1 0 0
vn 1 0 0
vn 0 0 1
vn 0 0 -1
vn 0 -1 0
vn 0 1 0

# texcoords
vt 0.166016 0.5
vt 0.392578 0.5
vt 0.853516 0.5
vt 0.857422 0.5
vt 0.861328 0.5
vt 0.876953 0.5
vt 0.978516 0.5
vt 0.982422 0.5
vt 0.986328 0.5
vt 0.990234 0.5
vt 0.994141 0.5

# verts
v -0.8 0 0.2
v -0.8 0 0.1
v -0.8 0.1 0.2
v -0.8 0.1 0.1
v -0.7 0 0.7
v -0.7 0 0.6
v -0.7 0 -0.4
v -0.7 0 -0.5
v -0.7 0.1 0.7
v -0.7 0.1 0.6
v -0.7 0.1 0.2
v -0.7 0.1 0.1
v -0.7 0.1 -0.4
v -0.7 0.1 -0.5
v -0.7 0.2 0.2
v -0.7 0.2 0.1
v -0.6 0.1 0.6
v -0.6 0.1 0.5
v -0.6 0.1 -0.3
v -0.6 0.1 -0.4
v -0.6 0.2 0.6
v -0.6 0.2 0.5
v -0.6 0.2 -0.3
v -0.6 0.2 -0.4
v -0.5 0 0.5
v -0.5 0 -0.3
v -0.5 0.1 0.5
v -0.5 0.1 0.2
v -0.5 0.1 0.1
v -0.5 0.1 -0.3
v -0.5 0.2 0.5
v -0.5 0.2 0.2
v -0.5 0.2 0.1
v -0.5 0.2 -5.96046e-08
v -0.5 0.2 -0.1
v -0.5 0.2 -0.2
v -0.5 0.2 -0.3
v -0.5 0.3 0.5
v -0.5 0.3 0.1
v -0.5 0.3 -5.96046e-08
v -0.5 0.3 -0.1
v -0.5 0.3 -0.2
v -0.5 0.3 -0.3
v -0.4 0 0.6
v -0.4 0 0.5
v -0.4 0 -0.3
v -0.4 0 -0.4
v -0.4 0.2 -0.3
v -0.4 0.2 -0.4
v -0.4 0.3 0.6
v -0.4 0.3 0.5
v -0.4 0.3 -0.3
v -0.4 0.3 -0.4
v -0.3 0.2 0.8
v -0.3 0.2 0.6
v -0.3 0.3 0.6
v -0.3 0.3 0.5
v -0.3 0.3 0.4
v -0.3 0.3 0.3
v -0.3 0.4 0.8
v -0.3 0.4 0.6
v -0.3 0.4 0.5
v -0.3 0.4 0.4
v -0.3 0.4 0.3
v 0.3 0.1 0.6
v 0.3 0.1 0.5
v 0.3 0.1 -0.4
v 0.3 0.1 -0.5
v 0.3 0.2 0.6
v 0.3 0.2 0.5
v 0.3 0.2 -0.4
v 0.3 0.2 -0.5
v 0.4 0 0.7
v 0.4 0 0.6
v 0.4 0 -0.5
v 0.4 0 -0.6
v 0.4 0.1 0.7
v 0.4 0.1 0.6
v 0.4 0.1 -0.5
v 0.4 0.1 -0.6
v 0.5 0 0.2
v 0.5 0 0.1
v 0.5 0.1 0.2
v 0.5 0.1 0.1
v -0.7 0 0.2
v -0.7 0 0.1
v -0.7 0.1 0.2
v -0.7 0.1 0.1
v -0.6 0 0.7
v -0.6 0 0.6
v -0.6 0 -0.4
v -0.6 0 -0.5
v -0.6 0.1 0.7
v -0.6 0.1 0.6
v -0.6 0.1 -0.4
v -0.6 0.1 -0.5
v -0.5 0.1 0.6
v -0.5 0.1 0.5
v -0.5 0.1 -0.3
v -0.5 0.1 -0.4
v -0.5 0.2 0.6
v -0.5 0.2 0.5
v -0.5 0.2 -0.3
v -0.5 0.2 -0.4
v 0.1 0.2 0.8
v 0.1 0.2 0.6
v 0.1 0.3 0.6
v 0.1 0.3 0.5
v 0.1 0.3 0.4
v 0.1 0.3 0.3
v 0.1 0.4 0.8
v 0.1 0.4 0.6
v 0.1 0.4 0.5
v 0.1 0.4 0.4
v 0.1 0.4 0.3
v 0.2 0 0.6
v 0.2 0 0.5
v 0.2 0 -0.3
v 0.2 0 -0.4
v 0.2 0.1 -0.3
v 0.2 0.1 -0.4
v 0.2 0.2 -0.3
v 0.2 0.2 -0.4
v 0.2 0.3 0.6
v 0.2 0.3 0.5
v 0.2 0.3 -0.3
v 0.2 0.3 -0.4
v 0.3 0 0.5
v 0.3 0 -0.3
v 0.3 0.1 0.5
v 0.3 0.1 0.2
v 0.3 0.1 0.1
v 0.3 0.1 -0.3
v 0.3 0.1 -0.4
v 0.3 0.2 0.5
v 0.3 0.2 0.2
v 0.3 0.2 0.1
v 0.3 0.2 -5.96046e-08
v 0.3 0.2 -0.1
v 0.3 0.2 -0.2
v 0.3 0.2 -0.3
v 0.3 0.2 -0.4
v 0.3 0.3 0.5
v 0.3 0.3 0.1
v 0.3 0.3 -5.96046e-08
v 0.3 0.3 -0.1
v 0.3 0.3 -0.2
v 0.3 0.3 -0.3
v 0.4 0.1 0.6
v 0.4 0.1 0.5
v 0.4 0.1 -0.4
v 0.4 0.1 -0.5
v 0.4 0.2 0.6
v 0.4 0.2 0.5
v 0.4 0.2 -0.4
v 0.4 0.2 -0.5
v 0.5 0 0.7
v 0.5 0 0.6
v 0.5 0 -0.5
v 0.5 0 -0.6
v 0.5 0.1 0.7
v 0.5 0.1 0.6
v 0.5 0.1 0.2
v 0.5 0.1 0.1
v 0.5 0.1 -0.5
v 0.5 0.1 -0.6
v 0.5 0.2 0.2
v 0.5 0.2 0.1
v 0.6 0 0.2
v 0.6 0 0.1
v 0.6 0.1 0.2
v 0.6 0.1 0.1
v -0.3 0.2 0.8
v -0.3 0.4 0.8
v 0.1 0.2 0.8
v 0.1 0.4 0.8
v -0.7 0 0.7
v -0.7 0.1 0.7
v -0.6 0 0.7
v -0.6 0.1 0.7
v 0.4 0 0.7
v 0.4 0.1 0.7
v 0.5 0 0.7
v 0.5 0.1 0.7
v -0.6 0.1 0.6
v -0.6 0.2 0.6
v -0.5 0.1 0.6
v -0.5 0.2 0.6
v -0.4 0 0.6
v -0.4 0.3 0.6
v -0.3 0.2 0.6
v -0.3 0.3 0.6
v 0.1 0.2 0.6
v 0.1 0.3 0.6
v 0.2 0 0.6
v 0.2 0.3 0.6
v 0.3 0.1 0.6
v 0.3 0.2 0.6
v 0.4 0.1 0.6
v 0.4 0.2 0.6
v -0.5 0 0.5
v -0.5 0.1 0.5
v -0.5 0.2 0.5
v -0.5 0.3 0.5
v -0.4 0 0.5
v -0.4 0.3 0.5
v 0.2 0 0.5
v 0.2 0.3 0.5
v 0.3 0 0.5
v 0.3 0.1 0.5
v 0.3 0.2 0.5
v 0.3 0.3 0.5
v -0.8 0 0.2
v -0.8 0.1 0.2
v -0.7 0 0.2
v -0.7 0.1 0.2
v -0.7 0.2 0.2
v -0.5 0.1 0.2
v -0.5 0.2 0.2
v 0.3 0.1 0.2
v 0.3 0.2 0.2
v 0.5 0 0.2
v 0.5 0.1 0.2
v 0.5 0.2 0.2
v 0.6 0 0.2
v 0.6 0.1 0.2
v -0.6 0.1 -0.3
v -0.6 0.2 -0.3
v -0.5 0.1 -0.3
v -0.5 0.2 -0.3
v -0.7 0 -0.4
v -0.7 0.1 -0.4
v -0.6 0 -0.4
v -0.6 0.1 -0.4
v 0.3 0.1 -0.4
v 0.3 0.2 -0.4
v 0.4 0.1 -0.4
v 0.4 0.2 -0.4
v 0.4 0 -0.5
v 0.4 0.1 -0.5
v 0.5 0 -0.5
v 0.5 0.1 -0.5
v -0.7 0 0.6
v -0.7 0.1 0.6
v -0.6 0 0.6
v -0.6 0.1 0.6
v 0.4 0 0.6
v 0.4 0.1 0.6
v 0.5 0 0.6
v 0.5 0.1 0.6
v -0.6 0.1 0.5
v -0.6 0.2 0.5
v -0.5 0.1 0.5
v -0.5 0.2 0.5
v 0.3 0.1 0.5
v 0.3 0.2 0.5
v 0.4 0.1 0.5
v 0.4 0.2 0.5
v -0.3 0.3 0.3
v -0.3 0.4 0.3
v -0.2 0.3 0.3
v 5.96046e-08 0.3 0.3
v 0.1 0.3 0.3
v 0.1 0.4 0.3
v -0.8 0 0.1
v -0.8 0.1 0.1
v -0.7 0 0.1
v -0.7 0.1 0.1
v -0.7 0.2 0.1
v -0.5 0.1 0.1
v -0.5 0.2 0.1
v 0.3 0.1 0.1
v 0.3 0.2 0.1
v 0.5 0 0.1
v 0.5 0.1 0.1
v 0.5 0.2 0.1
v 0.6 0 0.1
v 0.6 0.1 0.1
v -0.5 0 -0.3
v -0.5 0.1 -0.3
v -0.5 0.2 -0.3
v -0.5 0.3 -0.3
v -0.4 0 -0.3
v -0.4 0.2 -0.3
v -0.4 0.3 -0.3
v 0.2 0 -0.3
v 0.2 0.1 -0.3
v 0.2 0.2 -0.3
v 0.2 0.3 -0.3
v 0.3 0 -0.3
v 0.3 0.1 -0.3
v 0.3 0.2 -0.3
v 0.3 0.3 -0.3
v -0.6 0.1 -0.4
v -0.6 0.2 -0.4
v -0.5 0.1 -0.4
v -0.5 0.2 -0.4
v -0.4 0 -0.4
v -0.4 0.2 -0.4
v -0.4 0.3 -0.4
v 0.2 0 -0.4
v 0.2 0.1 -0.4
v 0.2 0.2 -0.4
v 0.2 0.3 -0.4
v 0.3 0.1 -0.4
v 0.3 0.2 -0.4
v -0.7 0 -0.5
v -0.7 0.1 -0.5
v -0.6 0 -0.5
v -0.6 0.1 -0.5
v 0.3 0.1 -0.5
v 0.3 0.2 -0.5
v 0.4 0.1 -0.5
v 0.4 0.2 -0.5
v 0.4 0 -0.6
v 0.4 0.1 -0.6
v 0.5 0 -0.6
v 0.5 0.1 -0.6
v -0.7 0 0.7
v -0.6 0 0.7
v 0.4 0 0.7
v 0.5 0 0.7
v -0.7 0 0.6
v -0.6 0 0.6
v -0.4 0 0.6
v 0.2 0 0.6
v 0.4 0 0.6
v 0.5 0 0.6
v -0.5 0 0.5
v -0.4 0 0.5
v 0.2 0 0.5
v 0.3 0 0.5
v -0.8 0 0.2
v -0.7 0 0.2
v 0.5 0 0.2
v 0.6 0 0.2
v -0.8 0 0.1
v -0.7 0 0.1
v 0.5 0 0.1
v 0.6 0 0.1
v -0.5 0 -0.3
v -0.4 0 -0.3
v 0.2 0 -0.3
v 0.3 0 -0.3
v -0.7 0 -0.4
v -0.6 0 -0.4
v -0.4 0 -0.4
v 0.2 0 -0.4
v -0.7 0 -0.5
v -0.6 0 -0.5
v 0.4 0 -0.5
v 0.5 0 -0.5
v 0.4 0 -0.6
v 0.5 0 -0.6
v -0.6 0.1 0.6
v -0.5 0.1 0.6
v 0.3 0.1 0.6
v 0.4 0.1 0.6
v -0.6 0.1 0.5
v -0.5 0.1 0.5
v 0.3 0.1 0.5
v 0.4 0.1 0.5
v -0.7 0.1 0.2
v -0.5 0.1 0.2
v 0.3 0.1 0.2
v 0.5 0.1 0.2
v -0.7 0.1 0.1
v -0.5 0.1 0.1
v 0.3 0.1 0.1
v 0.5 0.1 0.1
v -0.6 0.1 -0.3
v -0.5 0.1 -0.3
v 0.2 0.1 -0.3
v 0.3 0.1 -0.3
v -0.6 0.1 -0.4
v -0.5 0.1 -0.4
v 0.2 0.1 -0.4
v 0.3 0.1 -0.4
v 0.4 0.1 -0.4
v 0.3 0.1 -0.5
v 0.4 0.1 -0.5
v -0.3 0.2 0.8
v 0.1 0.2 0.8
v -0.3 0.2 0.6
v 0.1 0.2 0.6
v -0.7 0.1 0.7
v -0.6 0.1 0.7
v 0.4 0.1 0.7
v 0.5 0.1 0.7
v -0.7 0.1 0.6
v -0.6 0.1 0.6
v 0.4 0.1 0.6
v 0.5 0.1 0.6
v -0.8 0.1 0.2
v -0.7 0.1 0.2
v 0.5 0.1 0.2
v 0.6 0.1 0.2
v -0.8 0.1 0.1
v -0.7 0.1 0.1
v 0.5 0.1 0.1
v 0.6 0.1 0.1
v -0.7 0.1 -0.4
v -0.6 0.1 -0.4
v -0.7 0.1 -0.5
v -0.6 0.1 -0.5
v 0.4 0.1 -0.5
v 0.5 0.1 -0.5
v 0.4 0.1 -0.6
v 0.5 0.1 -0.6
v -0.6 0.2 0.6
v -0.5 0.2 0.6
v 0.3 0.2 0.6
v 0.4 0.2 0.6
v -0.6 0.2 0.5
v -0.5 0.2 0.5
v 0.3 0.2 0.5
v 0.4 0.2 0.5
v -0.7 0.2 0.2
v -0.5 0.2 0.2
v 0.3 0.2 0.2
v 0.5 0.2 0.2
v -0.7 0.2 0.1
v -0.5 0.2 0.1
v 0.3 0.2 0.1
v 0.5 0.2 0.1
v -0.6 0.2 -0.3
v -0.5 0.2 -0.3
v 0.2 0.2 -0.3
v 0.3 0.2 -0.3
v -0.6 0.2 -0.4
v -0.5 0.2 -0.4
v 0.2 0.2 -0.4
v 0.3 0.2 -0.4
v 0.4 0.2 -0.4
v 0.3 0.2 -0.5
v 0.4 0.2 -0.5
v -0.4 0.3 0.6
v -0.3 0.3 0.6
v 0.1 0.3 0.6
v 0.2 0.3 0.6
v -0.5 0.3 0.5
v -0.4 0.3 0.5
v -0.3 0.3 0.5
v 0.1 0.3 0.5
v 0.2 0.3 0.5
v 0.3 0.3 0.5
v -0.3 0.3 0.4
v 0.1 0.3 0.4
v -0.3 0.3 0.3
v -0.2 0.3 0.3
v 5.96046e-08 0.3 0.3
v 0.1 0.3 0.3
v -0.3 0.3 0.2
v -0.2 0.3 0.2
v 5.96046e-08 0.3 0.2
v 0.1 0.3 0.2
v -0.5 0.3 0.1
v -0.3 0.3 0.1
v 0.1 0.3 0.1
v 0.3 0.3 0.1
v -0.5 0.3 -5.96046e-08
v -0.3 0.3 -5.96046e-08
v 0.1 0.3 -5.96046e-08
v 0.3 0.3 -5.96046e-08
v -0.5 0.3 -0.1
v -0.3 0.3 -0.1
v 0.1 0.3 -0.1
v 0.3 0.3 -0.1
v -0.5 0.3 -0.2
v -0.3 0.3 -0.2
v 0.1 0.3 -0.2
v 0.3 0.3 -0.2
v -0.5 0.3 -0.3
v -0.4 0.3 -0.3
v -0.3 0.3 -0.3
v 0.1 0.3 -0.3
v 0.2 0.3 -0.3
v 0.3 0.3 -0.3
v -0.4 0.3 -0.4
v 0.2 0.3 -0.4
v -0.3 0.4 0.8
v 0.1 0.4 0.8
v -0.3 0.4 0.6
v 0.1 0.4 0.6
v -0.3 0.4 0.5
v 0.1 0.4 0.5
v -0.3 0.4 0.4
v 0.1 0.4 0.4
v -0.3 0.4 0.3
v 0.1 0.4 0.3

# faces
f 3/1/1 2/1/1 1/1/1
f 4/1/1 2/1/1 3/1/1
f 9/1/1 6/1/1 5/1/1
f 10/1/1 6/1/1 9/1/1
f 13/1/1 8/1/1 7/1/1
f 14/1/1 8/1/1 13/1/1
f 15/1/1 12/1/1 11/1/1
f 16/1/1 12/1/1 15/1/1
f 21/1/1 18/1/1 17/1/1
f 22/1/1 18/1/1 21/1/1
f 23/1/1 20/1/1 19/1/1
f 24/1/1 20/1/1 23/1/1
f 27/7/1 26/7/1 25/7/1
f 28/7/1 26/7/1 27/7/1
f 29/7/1 26/7/1 28/7/1
f 30/7/1 26/7/1 29/7/1
f 31/7/1 28/7/1 27/7/1
f 32/7/1 28/7/1 31/7/1
f 33/7/1 30/7/1 29/7/1
f 34/7/1 30/7/1 33/7/1
f 35/7/1 30/7/1 34/7/1
f 36/7/1 30/7/1 35/7/1
f 37/7/1 30/7/1 36/7/1
f 38/7/1 32/7/1 31/7/1
f 38/7/1 33/7/1 32/7/1
f 39/8/1 34/8/1 33/8/1
f 39/7/1 33/7/1 38/7/1
f 40/9/1 35/9/1 34/9/1
f 40/8/1 34/8/1 39/8/1
f 41/10/1 36/10/1 35/10/1
f 41/9/1 35/9/1 40/9/1
f 42/11/1 37/11/1 36/11/1
f 42/10/1 36/10/1 41/10/1
f 43/11/1 37/11/1 42/11/1
f 48/7/1 47/7/1 46/7/1
f 49/7/1 47/7/1 48/7/1
f 50/7/1 45/7/1 44/7/1
f 51/7/1 45/7/1 50/7/1
f 52/6/1 49/6/1 48/6/1
f 53/6/1 49/6/1 52/6/1
f 56/9/1 55/9/1 54/9/1
f 60/9/1 56/9/1 54/9/1
f 61/5/1 57/5/1 56/5/1
f 61/9/1 56/9/1 60/9/1
f 62/4/1 58/4/1 57/4/1
f 62/5/1 57/5/1 61/5/1
f 63/3/1 59/3/1 58/3/1
f 63/4/1 58/4/1 62/4/1
f 64/3/1 59/3/1 63/3/1
f 69/1/1 66/1/1 65/1/1
f 70/1/1 66/1/1 69/1/1
f 71/1/1 68/1/1 67/1/1
f 72/1/1 68/1/1 71/1/1
f 77/1/1 74/1/1 73/1/1
f 78/1/1 74/1/1 77/1/1
f 79/1/1 76/1/1 75/1/1
f 80/1/1 76/1/1 79/1/1
f 83/1/1 82/1/1 81/1/1
f 84/1/1 82/1/1 83/1/1
f 85/1/2 86/1/2 87/1/2
f 87/1/2 86/1/2 88/1/2
f 89/1/2 90/1/2 93/1/2
f 93/1/2 90/1/2 94/1/2
f 91/1/2 92/1/2 95/1/2
f 95/1/2 92/1/2 96/1/2
f 97/1/2 98/1/2 101/1/2
f 101/1/2 98/1/2 102/1/2
f 99/1/2 100/1/2 103/1/2
f 103/1/2 100/1/2 104/1/2
f 105/9/2 106/9/2 107/9/2
f 105/9/2 107/9/2 111/9/2
f 107/5/2 108/5/2 112/5/2
f 111/9/2 107/9/2 112/9/2
f 108/4/2 109/4/2 113/4/2
f 112/5/2 108/5/2 113/5/2
f 109/3/2 110/3/2 114/3/2
f 113/4/2 109/4/2 114/4/2
f 114/3/2 110/3/2 115/3/2
f 118/7/2 119/7/2 120/7/2
f 120/7/2 119/7/2 121/7/2
f 116/7/2 117/7/2 124/7/2
f 124/7/2 117/7/2 125/7/2
f 122/6/2 123/6/2 126/6/2
f 126/6/2 123/6/2 127/6/2
f 128/7/2 129/7/2 130/7/2
f 130/7/2 129/7/2 131/7/2
f 131/7/2 129/7/2 132/7/2
f 132/7/2 129/7/2 133/7/2
f 130/7/2 131/7/2 135/7/2
f 135/7/2 131/7/2 136/7/2
f 132/7/2 133/7/2 137/7/2
f 137/7/2 133/7/2 138/7/2
f 138/7/2 133/7/2 139/7/2
f 139/7/2 133/7/2 140/7/2
f 133/1/2 134/1/2 141/1/2
f 140/7/2 133/7/2 141/7/2
f 141/1/2 134/1/2 142/1/2
f 135/7/2 136/7/2 143/7/2
f 136/7/2 137/7/2 143/7/2
f 137/8/2 138/8/2 144/8/2
f 143/7/2 137/7/2 144/7/2
f 138/9/2 139/9/2 145/9/2
f 144/8/2 138/8/2 145/8/2
f 139/10/2 140/10/2 146/10/2
f 145/9/2 139/9/2 146/9/2
f 140/11/2 141/11/2 147/11/2
f 146/10/2 140/10/2 147/10/2
f 147/11/2 141/11/2 148/11/2
f 149/1/2 150/1/2 153/1/2
f 153/1/2 150/1/2 154/1/2
f 151/1/2 152/1/2 155/1/2
f 155/1/2 152/1/2 156/1/2
f 157/1/2 158/1/2 161/1/2
f 161/1/2 158/1/2 162/1/2
f 159/1/2 160/1/2 165/1/2
f 165/1/2 160/1/2 166/1/2
f 163/1/2 164/1/2 167/1/2
f 167/1/2 164/1/2 168/1/2
f 169/1/2 170/1/2 171/1/2
f 171/1/2 170/1/2 172/1/2
f 175/9/3 174/9/3 173/9/3
f 176/9/3 174/9/3 175/9/3
f 179/1/3 178/1/3 177/1/3
f 180/1/3 178/1/3 179/1/3
f 183/1/3 182/1/3 181/1/3
f 184/1/3 182/1/3 183/1/3
f 187/1/3 186/1/3 185/1/3
f 188/1/3 186/1/3 187/1/3
f 191/7/3 190/7/3 189/7/3
f 192/7/3 190/7/3 191/7/3
f 193/7/3 191/7/3 189/7/3
f 195/7/3 193/7/3 189/7/3
f 195/7/3 194/7/3 193/7/3
f 196/7/3 194/7/3 195/7/3
f 199/1/3 198/1/3 197/1/3
f 200/1/3 198/1/3 199/1/3
f 205/7/3 202/7/3 201/7/3
f 205/7/3 204/7/3 203/7/3
f 205/7/3 203/7/3 202/7/3
f 206/7/3 204/7/3 205/7/3
f 209/7/3 208/7/3 207/7/3
f 210/7/3 208/7/3 209/7/3
f 211/7/3 208/7/3 210/7/3
f 212/7/3 208/7/3 211/7/3
f 215/1/3 214/1/3 213/1/3
f 216/1/3 214/1/3 215/1/3
f 218/1/3 217/1/3 216/1/3
f 219/1/3 217/1/3 218/1/3
f 223/1/3 221/1/3 220/1/3
f 224/1/3 221/1/3 223/1/3
f 225/1/3 223/1/3 222/1/3
f 226/1/3 223/1/3 225/1/3
f 229/1/3 228/1/3 227/1/3
f 230/1/3 228/1/3 229/1/3
f 233/1/3 232/1/3 231/1/3
f 234/1/3 232/1/3 233/1/3
f 237/1/3 236/1/3 235/1/3
f 238/1/3 236/1/3 237/1/3
f 241/1/3 240/1/3 239/1/3
f 242/1/3 240/1/3 241/1/3
f 243/1/4 244/1/4 245/1/4
f 245/1/4 244/1/4 246/1/4
f 247/1/4 248/1/4 249/1/4
f 249/1/4 248/1/4 250/1/4
f 251/1/4 252/1/4 253/1/4
f 253/1/4 252/1/4 254/1/4
f 255/1/4 256/1/4 257/1/4
f 257/1/4 256/1/4 258/1/4
f 259/3/4 260/3/4 261/3/4
f 261/3/4 260/3/4 262/3/4
f 262/3/4 260/3/4 263/3/4
f 263/3/4 260/3/4 264/3/4
f 265/1/4 266/1/4 267/1/4
f 267/1/4 266/1/4 268/1/4
f 268/1/4 269/1/4 270/1/4
f 270/1/4 269/1/4 271/1/4
f 272/1/4 273/1/4 275/1/4
f 275/1/4 273/1/4 276/1/4
f 274/1/4 275/1/4 277/1/4
f 277/1/4 275/1/4 278/1/4
f 279/7/4 280/7/4 283/7/4
f 280/7/4 281/7/4 283/7/4
f 281/11/4 282/11/4 284/11/4
f 283/7/4 281/7/4 284/7/4
f 284/11/4 282/11/4 285/11/4
f 286/7/4 287/7/4 290/7/4
f 290/7/4 287/7/4 291/7/4
f 288/11/4 289/11/4 292/11/4
f 292/11/4 289/11/4 293/11/4
f 294/1/4 295/1/4 296/1/4
f 296/1/4 295/1/4 297/1/4
f 298/7/4 299/7/4 301/7/4
f 301/7/4 299/7/4 302/7/4
f 299/6/4 300/6/4 303/6/4
f 302/7/4 299/7/4 303/7/4
f 303/6/4 300/6/4 304/6/4
f 302/1/4 303/1/4 305/1/4
f 305/1/4 303/1/4 306/1/4
f 307/1/4 308/1/4 309/1/4
f 309/1/4 308/1/4 310/1/4
f 311/1/4 312/1/4 313/1/4
f 313/1/4 312/1/4 314/1/4
f 315/1/4 316/1/4 317/1/4
f 317/1/4 316/1/4 318/1/4
f 323/1/5 320/1/5 319/1/5
f 324/1/5 320/1/5 323/1/5
f 327/1/5 322/1/5 321/1/5
f 328/1/5 322/1/5 327/1/5
f 330/7/5 326/7/5 325/7/5
f 331/7/5 326/7/5 330/7/5
f 337/1/5 334/1/5 333/1/5
f 338/1/5 334/1/5 337/1/5
f 339/1/5 336/1/5 335/1/5
f 340/1/5 336/1/5 339/1/5
f 341/7/5 330/7/5 329/7/5
f 341/7/5 331/7/5 330/7/5
f 341/7/5 332/7/5 331/7/5
f 342/7/5 332/7/5 341/7/5
f 343/7/5 332/7/5 342/7/5
f 344/7/5 332/7/5 343/7/5
f 347/7/5 343/7/5 342/7/5
f 348/7/5 343/7/5 347/7/5
f 349/1/5 346/1/5 345/1/5
f 350/1/5 346/1/5 349/1/5
f 353/1/5 352/1/5 351/1/5
f 354/1/5 352/1/5 353/1/5
f 359/1/5 356/1/5 355/1/5
f 360/1/5 356/1/5 359/1/5
f 361/1/5 358/1/5 357/1/5
f 362/1/5 358/1/5 361/1/5
f 367/1/5 364/1/5 363/1/5
f 368/1/5 364/1/5 367/1/5
f 369/1/5 366/1/5 365/1/5
f 370/1/5 366/1/5 369/1/5
f 375/1/5 372/1/5 371/1/5
f 376/1/5 372/1/5 375/1/5
f 377/1/5 374/1/5 373/1/5
f 378/1/5 374/1/5 377/1/5
f 380/1/5 379/1/5 378/1/5
f 381/1/5 379/1/5 380/1/5
f 384/9/5 383/9/5 382/9/5
f 385/9/5 383/9/5 384/9/5
f 386/1/6 387/1/6 390/1/6
f 390/1/6 387/1/6 391/1/6
f 388/1/6 389/1/6 392/1/6
f 392/1/6 389/1/6 393/1/6
f 394/1/6 395/1/6 398/1/6
f 398/1/6 395/1/6 399/1/6
f 396/1/6 397/1/6 400/1/6
f 400/1/6 397/1/6 401/1/6
f 402/1/6 403/1/6 404/1/6
f 404/1/6 403/1/6 405/1/6
f 406/1/6 407/1/6 408/1/6
f 408/1/6 407/1/6 409/1/6
f 410/1/6 411/1/6 414/1/6
f 414/1/6 411/1/6 415/1/6
f 412/1/6 413/1/6 416/1/6
f 416/1/6 413/1/6 417/1/6
f 418/1/6 419/1/6 422/1/6
f 422/1/6 419/1/6 423/1/6
f 420/1/6 421/1/6 424/1/6
f 424/1/6 421/1/6 425/1/6
f 426/1/6 427/1/6 430/1/6
f 430/1/6 427/1/6 431/1/6
f 428/1/6 429/1/6 432/1/6
f 432/1/6 429/1/6 433/1/6
f 433/1/6 434/1/6 435/1/6
f 435/1/6 434/1/6 436/1/6
f 437/7/6 438/7/6 442/7/6
f 442/7/6 438/7/6 443/7/6
f 439/7/6 440/7/6 444/7/6
f 444/7/6 440/7/6 445/7/6
f 442/7/6 443/7/6 447/7/6
f 441/7/6 442/7/6 447/7/6
f 445/7/6 446/7/6 448/7/6
f 444/7/6 445/7/6 448/7/6
f 441/7/6 447/7/6 449/7/6
f 448/7/6 446/7/6 452/7/6
f 441/7/6 449/7/6 453/7/6
f 449/7/6 450/7/6 453/7/6
f 450/2/6 451/2/6 454/2/6
f 453/7/6 450/7/6 454/7/6
f 451/7/6 452/7/6 455/7/6
f 454/2/6 451/2/6 455/2/6
f 452/7/6 446/7/6 456/7/6
f 455/7/6 452/7/6 456/7/6
f 441/7/6 453/7/6 457/7/6
f 453/8/6 454/8/6 458/8/6
f 457/7/6 453/7/6 458/7/6
f 454/8/6 455/8/6 458/8/6
f 455/8/6 456/8/6 458/8/6
f 456/7/6 446/7/6 459/7/6
f 458/8/6 456/8/6 459/8/6
f 459/7/6 446/7/6 460/7/6
f 457/8/6 458/8/6 461/8/6
f 458/9/6 459/9/6 462/9/6
f 461/8/6 458/8/6 462/8/6
f 459/8/6 460/8/6 463/8/6
f 462/9/6 459/9/6 463/9/6
f 463/8/6 460/8/6 464/8/6
f 461/9/6 462/9/6 465/9/6
f 462/10/6 463/10/6 466/10/6
f 465/9/6 462/9/6 466/9/6
f 463/9/6 464/9/6 467/9/6
f 466/10/6 463/10/6 467/10/6
f 467/9/6 464/9/6 468/9/6
f 465/10/6 466/10/6 469/10/6
f 466/11/6 467/11/6 470/11/6
f 469/10/6 466/10/6 470/10/6
f 467/10/6 468/10/6 471/10/6
f 470/11/6 467/11/6 471/11/6
f 471/10/6 468/10/6 472/10/6
f 469/11/6 470/11/6 473/11/6
f 473/11/6 470/11/6 474/11/6
f 470/6/6 471/6/6 475/6/6
f 474/11/6 470/11/6 475/11/6
f 471/11/6 472/11/6 476/11/6
f 475/6/6 471/6/6 476/6/6
f 476/11/6 472/11/6 477/11/6
f 477/11/6 472/11/6 478/11/6
f 474/6/6 475/6/6 479/6/6
f 476/6/6 477/6/6 479/6/6
f 475/6/6 476/6/6 479/6/6
f 479/6/6 477/6/6 480/6/6
f 481/9/6 482/9/6 483/9/6
f 483/9/6 482/9/6 484/9/6
f 483/5/6 484/5/6 485/5/6
f 485/5/6 484/5/6 486/5/6
f 485/4/6 486/4/6 487/4/6
f 487/4/6 486/4/6 488/4/6
f 487/3/6 488/3/6 489/3/6
f 489/3/6 488/3/6 490/3/6
